<svg xmlns="http://www.w3.org/2000/svg" viewBox="0 0 1000 1000">
  <circle cx="500" cy="500" r="500" fill="#000"/>
  

  
  <g id="Layer_4" data-name="Layer 4">
    <path fill="#fff" d="M500,0C223.86,0,0,223.86,0,500c0,184.45,99.88,345.56,248.5,432.23v-320.73c0-19.28,16.2-35.5,35.5-35.5h439.5c52.51-.28,95-42.92,95-95.5s-42.49-95.22-95-95.49c0,0-439.5,0-439.5,0-20.34,0-36.68-17.1-35.43-37.7,1.11-18.34,17.71-33.3,36.08-33.3h438.86c91.34,0,166.5,75.16,166.5,166.5s-75.16,166.5-166.5,166.5h-404v319.42c55.99,21.68,116.85,33.58,180.5,33.58,276.14,0,500-223.86,500-500S776.14,0,500,0ZM751.5,218.5c0,19.61-15.89,35.5-35.5,35.5h-439.5c-52.51.28-95,42.92-95,95.5s42.49,95.22,95,95.49h0s439.5,0,439.5,0c19.61,0,35.5,15.89,35.5,35.5h0c0,19.61-15.89,35.5-35.5,35.5h-439.5c-91.34,0-166.5-75.16-166.5-166.5s75.16-166.5,166.5-166.5h439.5c19.61,0,35.5,15.89,35.5,35.5h0Z"/>
  </g>

</svg>